<svg width="210" height="286" viewBox="0 0 378 286" fill="none" xmlns="http://www.w3.org/2000/svg">
<path fill-rule="evenodd" clip-rule="evenodd" d="M290.706 152L191.501 0L89.9138 152H139.691L190.376 76L239.873 152H290.706ZM336.393 222H285.462L305 252H73L93.0073 222H43.13L41.125 225H91L73 252H23L0.523438 285.75H378L336.393 222Z" fill="#334B48"/>
<path d="M64.7227 176.395V186.805H75.4453V189.207H64.7227V202H62.2031V173.992H77.9648V176.395H64.7227ZM105.133 202L97.5352 190.047H94.0781V202H91.5586V173.992H100.445C101.396 173.992 102.288 174.174 103.121 174.539C103.954 174.891 104.684 175.379 105.309 176.004C105.934 176.629 106.422 177.365 106.773 178.211C107.138 179.044 107.32 179.936 107.32 180.887V183.152C107.32 184.103 107.138 185.001 106.773 185.848C106.422 186.681 105.934 187.41 105.309 188.035C104.684 188.66 103.954 189.155 103.121 189.52C102.288 189.871 101.396 190.047 100.445 190.047L108.043 202H105.133ZM104.801 180.887C104.801 180.262 104.684 179.682 104.449 179.148C104.215 178.602 103.896 178.126 103.492 177.723C103.089 177.306 102.613 176.98 102.066 176.746C101.533 176.512 100.953 176.395 100.328 176.395H94.0781V187.645H100.328C100.953 187.645 101.533 187.527 102.066 187.293C102.613 187.059 103.089 186.74 103.492 186.336C103.896 185.919 104.215 185.444 104.449 184.91C104.684 184.363 104.801 183.777 104.801 183.152V180.887ZM138.219 195.516C138.219 196.466 138.036 197.358 137.672 198.191C137.32 199.025 136.832 199.754 136.207 200.379C135.582 201.004 134.853 201.499 134.02 201.863C133.186 202.215 132.294 202.391 131.344 202.391H129.352C128.401 202.391 127.503 202.215 126.656 201.863C125.823 201.499 125.094 201.004 124.469 200.379C123.844 199.754 123.349 199.025 122.984 198.191C122.633 197.358 122.457 196.466 122.457 195.516V180.477C122.457 179.526 122.633 178.634 122.984 177.801C123.349 176.967 123.844 176.238 124.469 175.613C125.094 174.988 125.823 174.5 126.656 174.148C127.503 173.784 128.401 173.602 129.352 173.602H131.344C132.294 173.602 133.186 173.784 134.02 174.148C134.853 174.5 135.582 174.988 136.207 175.613C136.832 176.238 137.32 176.967 137.672 177.801C138.036 178.634 138.219 179.526 138.219 180.477V195.516ZM135.699 180.477C135.699 179.852 135.582 179.272 135.348 178.738C135.113 178.191 134.794 177.716 134.391 177.312C133.987 176.909 133.512 176.59 132.965 176.355C132.431 176.121 131.852 176.004 131.227 176.004H129.469C128.844 176.004 128.258 176.121 127.711 176.355C127.177 176.59 126.702 176.909 126.285 177.312C125.882 177.716 125.562 178.191 125.328 178.738C125.094 179.272 124.977 179.852 124.977 180.477V195.516C124.977 196.141 125.094 196.727 125.328 197.273C125.562 197.807 125.882 198.283 126.285 198.699C126.702 199.103 127.177 199.422 127.711 199.656C128.258 199.891 128.844 200.008 129.469 200.008H131.227C131.852 200.008 132.431 199.891 132.965 199.656C133.512 199.422 133.987 199.103 134.391 198.699C134.794 198.283 135.113 197.807 135.348 197.273C135.582 196.727 135.699 196.141 135.699 195.516V180.477ZM168.668 202L156.988 181.609L156.754 180.398V202H154.234V173.992H155.543L167.223 194.402L167.477 195.594V173.992H169.996V202H168.668ZM193.219 176.395V202H190.699V176.395H184.02V173.992H199.898V176.395H193.219ZM216.441 176.395V186.805H227.164V189.207H216.441V202H213.922V173.992H229.684V176.395H216.441ZM253.297 195.477H244.43L242.594 202H239.977L248.18 173.992H249.508L257.75 202H255.152L253.297 195.477ZM245.113 193.074H252.633L248.941 180.164L248.863 179.129L248.785 180.164L245.113 193.074ZM286.695 195.516C286.695 196.466 286.513 197.358 286.148 198.191C285.797 199.025 285.309 199.754 284.684 200.379C284.059 201.004 283.329 201.499 282.496 201.863C281.663 202.215 280.771 202.391 279.82 202.391H277.828C276.878 202.391 275.979 202.215 275.133 201.863C274.299 201.499 273.57 201.004 272.945 200.379C272.32 199.754 271.826 199.025 271.461 198.191C271.109 197.358 270.934 196.466 270.934 195.516V180.477C270.934 179.526 271.109 178.634 271.461 177.801C271.826 176.967 272.32 176.238 272.945 175.613C273.57 174.988 274.299 174.5 275.133 174.148C275.979 173.784 276.878 173.602 277.828 173.602H279.82C280.771 173.602 281.663 173.784 282.496 174.148C283.329 174.5 284.059 174.988 284.684 175.613C285.309 176.238 285.797 176.967 286.148 177.801C286.513 178.634 286.695 179.526 286.695 180.477V181.609L284.176 182V180.477C284.176 179.852 284.059 179.272 283.824 178.738C283.59 178.191 283.271 177.716 282.867 177.312C282.464 176.909 281.988 176.59 281.441 176.355C280.908 176.121 280.328 176.004 279.703 176.004H277.945C277.32 176.004 276.734 176.121 276.188 176.355C275.654 176.59 275.178 176.909 274.762 177.312C274.358 177.716 274.039 178.191 273.805 178.738C273.57 179.272 273.453 179.852 273.453 180.477V195.516C273.453 196.141 273.57 196.727 273.805 197.273C274.039 197.807 274.358 198.283 274.762 198.699C275.178 199.103 275.654 199.422 276.188 199.656C276.734 199.891 277.32 200.008 277.945 200.008H279.703C280.328 200.008 280.908 199.891 281.441 199.656C281.988 199.422 282.464 199.103 282.867 198.699C283.271 198.283 283.59 197.807 283.824 197.273C284.059 196.727 284.176 196.141 284.176 195.516V193.992L286.695 194.402V195.516ZM302.32 202V173.992H318.082V176.395H304.84V186.805H315.562V189.207H304.84V199.598H318.082V202H302.32Z" fill="#334B48"/>
</svg>
