<svg width="150" height="200" viewBox="0 0 378 286" fill="none" xmlns="http://www.w3.org/2000/svg">
<path fill-rule="evenodd" clip-rule="evenodd" d="M290.183 152L190.978 0L89.3903 152H139.168L189.853 76L239.35 152H290.183ZM335.869 222H284.938L304.477 252H72.4766L92.4839 222H42.6066L40.6016 225H90.4766L72.4766 252H22.4766L0 285.75H377.477L335.869 222Z" fill="white"/>
<path d="M64.1992 176.395V186.805H74.9219V189.207H64.1992V202H61.6797V173.992H77.4414V176.395H64.1992ZM104.609 202L97.0117 190.047H93.5547V202H91.0352V173.992H99.9219C100.872 173.992 101.764 174.174 102.598 174.539C103.431 174.891 104.16 175.379 104.785 176.004C105.41 176.629 105.898 177.365 106.25 178.211C106.615 179.044 106.797 179.936 106.797 180.887V183.152C106.797 184.103 106.615 185.001 106.25 185.848C105.898 186.681 105.41 187.41 104.785 188.035C104.16 188.66 103.431 189.155 102.598 189.52C101.764 189.871 100.872 190.047 99.9219 190.047L107.52 202H104.609ZM104.277 180.887C104.277 180.262 104.16 179.682 103.926 179.148C103.691 178.602 103.372 178.126 102.969 177.723C102.565 177.306 102.09 176.98 101.543 176.746C101.009 176.512 100.43 176.395 99.8047 176.395H93.5547V187.645H99.8047C100.43 187.645 101.009 187.527 101.543 187.293C102.09 187.059 102.565 186.74 102.969 186.336C103.372 185.919 103.691 185.444 103.926 184.91C104.16 184.363 104.277 183.777 104.277 183.152V180.887ZM137.695 195.516C137.695 196.466 137.513 197.358 137.148 198.191C136.797 199.025 136.309 199.754 135.684 200.379C135.059 201.004 134.329 201.499 133.496 201.863C132.663 202.215 131.771 202.391 130.82 202.391H128.828C127.878 202.391 126.979 202.215 126.133 201.863C125.299 201.499 124.57 201.004 123.945 200.379C123.32 199.754 122.826 199.025 122.461 198.191C122.109 197.358 121.934 196.466 121.934 195.516V180.477C121.934 179.526 122.109 178.634 122.461 177.801C122.826 176.967 123.32 176.238 123.945 175.613C124.57 174.988 125.299 174.5 126.133 174.148C126.979 173.784 127.878 173.602 128.828 173.602H130.82C131.771 173.602 132.663 173.784 133.496 174.148C134.329 174.5 135.059 174.988 135.684 175.613C136.309 176.238 136.797 176.967 137.148 177.801C137.513 178.634 137.695 179.526 137.695 180.477V195.516ZM135.176 180.477C135.176 179.852 135.059 179.272 134.824 178.738C134.59 178.191 134.271 177.716 133.867 177.312C133.464 176.909 132.988 176.59 132.441 176.355C131.908 176.121 131.328 176.004 130.703 176.004H128.945C128.32 176.004 127.734 176.121 127.188 176.355C126.654 176.59 126.178 176.909 125.762 177.312C125.358 177.716 125.039 178.191 124.805 178.738C124.57 179.272 124.453 179.852 124.453 180.477V195.516C124.453 196.141 124.57 196.727 124.805 197.273C125.039 197.807 125.358 198.283 125.762 198.699C126.178 199.103 126.654 199.422 127.188 199.656C127.734 199.891 128.32 200.008 128.945 200.008H130.703C131.328 200.008 131.908 199.891 132.441 199.656C132.988 199.422 133.464 199.103 133.867 198.699C134.271 198.283 134.59 197.807 134.824 197.273C135.059 196.727 135.176 196.141 135.176 195.516V180.477ZM168.145 202L156.465 181.609L156.23 180.398V202H153.711V173.992H155.02L166.699 194.402L166.953 195.594V173.992H169.473V202H168.145ZM192.695 176.395V202H190.176V176.395H183.496V173.992H199.375V176.395H192.695ZM215.918 176.395V186.805H226.641V189.207H215.918V202H213.398V173.992H229.16V176.395H215.918ZM252.773 195.477H243.906L242.07 202H239.453L247.656 173.992H248.984L257.227 202H254.629L252.773 195.477ZM244.59 193.074H252.109L248.418 180.164L248.34 179.129L248.262 180.164L244.59 193.074ZM286.172 195.516C286.172 196.466 285.99 197.358 285.625 198.191C285.273 199.025 284.785 199.754 284.16 200.379C283.535 201.004 282.806 201.499 281.973 201.863C281.139 202.215 280.247 202.391 279.297 202.391H277.305C276.354 202.391 275.456 202.215 274.609 201.863C273.776 201.499 273.047 201.004 272.422 200.379C271.797 199.754 271.302 199.025 270.938 198.191C270.586 197.358 270.41 196.466 270.41 195.516V180.477C270.41 179.526 270.586 178.634 270.938 177.801C271.302 176.967 271.797 176.238 272.422 175.613C273.047 174.988 273.776 174.5 274.609 174.148C275.456 173.784 276.354 173.602 277.305 173.602H279.297C280.247 173.602 281.139 173.784 281.973 174.148C282.806 174.5 283.535 174.988 284.16 175.613C284.785 176.238 285.273 176.967 285.625 177.801C285.99 178.634 286.172 179.526 286.172 180.477V181.609L283.652 182V180.477C283.652 179.852 283.535 179.272 283.301 178.738C283.066 178.191 282.747 177.716 282.344 177.312C281.94 176.909 281.465 176.59 280.918 176.355C280.384 176.121 279.805 176.004 279.18 176.004H277.422C276.797 176.004 276.211 176.121 275.664 176.355C275.13 176.59 274.655 176.909 274.238 177.312C273.835 177.716 273.516 178.191 273.281 178.738C273.047 179.272 272.93 179.852 272.93 180.477V195.516C272.93 196.141 273.047 196.727 273.281 197.273C273.516 197.807 273.835 198.283 274.238 198.699C274.655 199.103 275.13 199.422 275.664 199.656C276.211 199.891 276.797 200.008 277.422 200.008H279.18C279.805 200.008 280.384 199.891 280.918 199.656C281.465 199.422 281.94 199.103 282.344 198.699C282.747 198.283 283.066 197.807 283.301 197.273C283.535 196.727 283.652 196.141 283.652 195.516V193.992L286.172 194.402V195.516ZM301.797 202V173.992H317.559V176.395H304.316V186.805H315.039V189.207H304.316V199.598H317.559V202H301.797Z" fill="white"/>
</svg>
