<svg width="30" height="30" viewBox="0 0 410 402" fill="none" xmlns="http://www.w3.org/2000/svg">
<path d="M0.993164 193.828C2.03316 186.078 2.70317 178.248 4.18317 170.578C17.5232 101.698 55.0731 50.2281 118.663 20.7481C190.953 -12.7719 261.323 -5.41193 326.173 40.9081C370.513 72.5781 396.993 116.678 406.563 170.418C414.583 215.468 408.013 258.678 387.333 299.438C369.393 334.808 343.223 362.898 308.833 382.778C297.283 389.458 284.703 394.398 272.433 399.768C269.813 400.908 266.443 400.978 263.523 400.628C259.593 400.158 257.203 397.398 256.573 393.438C256.263 391.478 256.183 389.468 256.193 387.478C256.243 370.318 256.403 353.148 256.393 335.988C256.393 324.678 254.753 313.688 248.523 303.898C246.983 301.478 245.083 299.298 243.163 296.758C250.703 295.418 258.073 294.428 265.273 292.758C285.563 288.058 303.653 279.448 316.823 262.518C326.383 250.228 331.373 236.028 333.803 220.898C335.813 208.398 336.493 195.788 334.853 183.148C332.933 168.388 327.233 155.238 317.663 143.908C315.343 141.158 315.243 138.998 316.183 135.768C320.953 119.438 319.093 103.398 313.133 87.7281C312.703 86.6081 310.083 85.4981 308.693 85.7081C302.293 86.6981 295.553 87.1781 289.713 89.6681C279.613 93.9681 270.033 99.4981 260.373 104.768C257.783 106.178 255.653 106.908 252.603 106.138C221.053 98.1681 189.443 98.2581 157.893 106.178C155.143 106.868 153.123 106.428 150.863 104.948C139.373 97.4381 127.483 90.6381 114.013 87.3181C109.793 86.2781 105.373 86.0481 101.023 85.6281C98.9732 85.4281 97.8032 86.5181 97.0732 88.6481C91.5232 104.918 89.8932 121.268 95.1732 137.958C95.5532 139.168 95.1932 141.178 94.3732 142.118C77.0332 162.188 73.1231 185.798 75.7831 211.238C77.1031 223.878 79.6832 236.138 85.0832 247.738C93.9532 266.808 108.623 279.528 127.903 287.338C139.323 291.968 151.263 294.418 163.413 296.048C164.713 296.218 165.993 296.518 166.763 296.658C163.843 302.018 160.873 307.248 158.153 312.618C157.213 314.478 156.493 316.638 156.403 318.698C156.193 323.608 153.163 325.288 149.043 326.568C134.613 331.018 120.503 331.568 108.183 321.528C103.053 317.348 99.0232 311.628 95.1132 306.158C89.2332 297.948 82.4432 290.988 72.6132 287.948C68.7932 286.768 64.5631 286.508 60.5331 286.548C58.7731 286.568 56.2431 288.008 55.5331 289.498C55.0431 290.538 56.8032 292.988 58.0232 294.398C59.3932 295.978 61.1731 297.288 62.9631 298.408C72.4731 304.358 78.6032 313.098 83.1332 323.038C86.5532 330.548 89.6532 338.188 95.7332 344.098C107.073 355.118 121.023 358.778 136.333 358.238C142.153 358.028 147.953 357.078 154.093 356.428C154.193 357.208 154.413 358.188 154.423 359.168C154.553 368.878 154.693 378.598 154.753 388.308C154.823 399.078 148.433 403.488 138.313 399.858C93.1232 383.648 57.6332 355.228 32.0832 314.668C15.7732 288.778 5.93317 260.448 2.56317 229.958C2.05317 225.368 1.52317 220.768 1.00317 216.178C1.00317 208.728 1.00317 201.278 1.00317 193.818L0.993164 193.828Z" fill="black"/>
</svg>
