<svg width="30" height="30" viewBox="0 0 409 328" fill="none" xmlns="http://www.w3.org/2000/svg">
<path d="M408.843 36.1681V291.668C408.643 292.148 408.343 292.618 408.263 293.118C404.903 313.468 386.423 327.718 364.853 327.658C257.883 327.338 150.903 327.528 43.9331 327.468C39.9731 327.468 35.9031 327.238 32.0531 326.368C13.0431 322.078 0.0731494 305.458 0.0631494 285.468C0.0231494 218.008 0.0431299 150.548 0.0431299 83.0981C0.0431299 68.9981 0.0131592 54.8881 0.0731592 40.7881C0.113159 31.9881 2.93313 24.0581 8.23313 17.0981C17.0831 5.4781 28.9932 0.29812 43.5232 0.30812C150.763 0.36812 258.003 0.338098 365.243 0.348098C366.573 0.348098 367.903 0.348105 369.233 0.418105C381.573 1.12811 391.663 6.23812 399.603 15.7481C404.593 21.7281 407.103 28.7681 408.833 36.1881L408.843 36.1681ZM41.0931 41.2881V286.318H81.8731V106.778C83.7531 107.948 84.9631 108.698 86.1731 109.458C124.363 133.648 162.573 157.798 200.703 182.078C203.433 183.818 205.323 183.908 208.113 182.128C246.233 157.838 284.443 133.678 322.643 109.498C323.913 108.688 325.233 107.958 327.253 106.768V286.258H367.823V41.2181C361.153 41.2181 354.653 40.9781 348.193 41.3281C345.303 41.4881 342.113 42.2181 339.673 43.7081C295.703 70.6881 251.823 97.7981 207.993 124.988C205.373 126.608 203.623 126.698 200.943 125.038C157.003 97.7681 112.983 70.6181 68.9731 43.4581C67.6331 42.6281 66.1832 41.4081 64.7532 41.3781C56.9432 41.1681 49.1232 41.2782 41.0832 41.2782L41.0931 41.2881Z" fill="black"/>
</svg>
