<svg width="346" height="348" viewBox="0 0 346 348" fill="none" xmlns="http://www.w3.org/2000/svg">
<path d="M56.7433 347.048C53.5233 346.538 50.2833 346.148 47.1033 345.478C45.6733 345.178 44.3633 344.328 43.0033 343.718C43.7333 342.428 44.2133 340.888 45.2233 339.868C55.8633 329.108 66.5833 318.418 77.3133 307.738C78.1833 306.868 79.2933 306.238 79.9333 305.768C66.8633 292.698 54.2933 280.128 41.4633 267.288C41.1233 267.608 40.2233 268.418 39.3633 269.258C28.5333 279.838 17.7233 290.438 6.85325 300.968C5.96325 301.838 4.65325 302.278 3.54325 302.928C2.87325 301.738 1.82325 300.618 1.59325 299.348C-3.56675 270.948 3.84325 245.948 23.2933 224.938C36.5533 210.618 53.7033 207.888 72.2433 211.738C76.1033 212.538 79.9933 213.278 83.7933 214.348C85.7133 214.888 86.8933 214.478 88.2433 213.128C96.0033 205.388 103.923 197.808 111.643 190.038C144.783 156.718 177.863 123.328 211.013 90.0282C212.853 88.1782 213.403 86.5382 212.963 83.8282C211.503 74.8282 209.663 65.7682 209.563 56.7082C209.413 42.3082 215.443 30.2682 226.633 20.9882C245.823 5.06822 267.763 -1.94178 292.653 0.618223C295.233 0.888223 297.793 1.33822 300.333 1.86822C303.033 2.42822 303.423 3.70823 301.573 5.82823C300.383 7.18823 299.043 8.40822 297.763 9.67822C287.853 19.5882 277.953 29.4882 268.053 39.3982C267.183 40.2682 266.353 41.1682 265.803 41.7482C278.523 54.4982 291.103 67.0982 304.533 80.5682C307.743 77.0082 310.983 73.0882 314.553 69.5082C322.453 61.5882 330.483 53.8082 338.563 46.0682C339.583 45.0882 341.173 44.7082 342.503 44.0482C343.003 45.2482 343.763 46.3982 343.983 47.6382C348.063 71.4782 343.263 93.4182 329.503 113.298C321.953 124.198 312.333 132.518 298.963 135.348C287.873 137.688 276.853 136.348 266.163 133.168C260.943 131.618 257.723 132.668 253.893 136.548C214.193 176.728 174.283 216.698 134.373 256.678C132.623 258.428 132.033 259.948 132.503 262.548C133.943 270.528 135.543 278.558 135.963 286.618C136.913 304.968 128.523 318.898 114.133 329.678C101.553 339.108 87.4833 344.688 71.8733 346.438C71.1033 346.528 70.3633 346.838 69.6133 347.048H56.7333H56.7433Z" fill="black"/>
</svg>
